<svg xmlns="http://www.w3.org/2000/svg" fill="none" viewBox="0 0 105 93">
  <path fill="#9D9D9D" d="M64.243 16.115c-3.873.934-6.922 4.205-8.398 8.997-.694 2.254-.998 5.052-.77 7.09.444 4.025 2.343 7.181 5.159 8.6.955.477 1.91.727 2.821.727.727 0 1.367-.13 2.1-.424 4.415-1.776 7.47-6.312 8.132-12.082.114-1.016.087-2.993-.06-4.183-.217-1.771-.472-2.716-1.063-3.939-.928-1.918-2.23-3.335-3.825-4.15-.966-.5-1.763-.707-2.848-.745-.613-.016-.776-.005-1.248.11Zm-26.622.961c-2.213.402-4.231 2.087-5.457 4.558-1.15 2.315-1.465 5.569-.868 8.986.76 4.357 2.978 8.03 6.136 10.148.694.468 1.844 1.038 2.625 1.299.554.184.695.206 1.308.233.813.033 1.394-.043 2.105-.271 1.1-.353 2.002-.908 2.848-1.755 1.676-1.679 2.718-4.205 2.962-7.188.097-1.227-.011-3.053-.277-4.481-.95-5.172-3.743-9.236-7.486-10.882-1.46-.641-2.745-.853-3.896-.647Zm43.996 18.986c-3.586.592-6.749 3.075-8.702 6.845-.928 1.788-1.416 3.33-1.769 5.574-.124.81-.146 1.114-.146 2.037 0 1.13.065 1.69.298 2.603.624 2.45 2.094 4.444 3.923 5.33.998.483 1.91.662 2.935.57 2.49-.218 4.709-1.342 6.683-3.385 2.176-2.255 3.673-5.373 4.161-8.649.125-.82.212-2.423.174-3.08-.2-3.385-2.013-6.351-4.535-7.438-.977-.418-2.051-.565-3.022-.407ZM19.7 34.082c-2.36.396-4.345 2.048-5.077 4.232-.26.771-.478 1.874-.57 2.879-.336 3.645.939 7.736 3.353 10.784.532.668 1.579 1.722 2.246 2.244 1.54 1.222 3.401 2.097 5.137 2.428.462.087 1.552.076 1.991-.022 1.948-.423 3.592-1.782 4.525-3.743.575-1.206.868-2.743.868-4.552 0-1.114-.054-1.723-.25-2.755-.743-3.977-3.157-7.698-6.412-9.887-.89-.603-2.154-1.244-2.843-1.445-.862-.25-2.061-.316-2.967-.163Zm29.937 11.874a19.118 19.118 0 0 0-5.593 1.526c-2.81 1.244-5.523 3.314-7.275 5.563-3.781 4.857-6.407 10.116-7.476 14.967-.065.3-.179.75-.25 1.005a6.971 6.971 0 0 0 .169 4.13c.76 2.107 2.403 3.742 4.438 4.427 1.215.407 3.032.402 5.056-.022 1.318-.271 2.305-.587 5.105-1.624 3.895-1.45 4.974-1.728 7.595-1.972 1.172-.109 1.383-.114 2.191-.055 2.067.147 3.7.598 6.836 1.88 2.778 1.136 4.33 1.75 4.72 1.858 3.906 1.108 7.785-.255 9.114-3.205.58-1.299.646-3.412.157-5.417-.477-1.95-1.893-5.117-3.25-7.252-3.819-6.02-6.569-9.393-9.71-11.936-2.978-2.401-5.452-3.531-8.523-3.873-.863-.098-2.425-.098-3.304 0Z"/>
</svg>
