<svg xmlns="http://www.w3.org/2000/svg" width="55" height="50" fill="none" viewBox="0 0 55 50">
  <path stroke="#999" stroke-width="4" d="M35.274 2.035c-2.209.532-4.203 2.45-5.229 5.773-.482 1.562-.681 3.5-.535 4.803v.003c.302 2.725 1.544 4.509 3.006 5.244.535.267.988.366 1.346.366.3 0 .556-.046.925-.193 2.666-1.07 4.752-3.914 5.216-7.94.07-.628.055-2.033-.045-2.843v-.002c-.154-1.249-.31-1.772-.66-2.49-.585-1.207-1.34-1.969-2.146-2.38l-.01-.004c-.499-.258-.841-.348-1.407-.368a3.519 3.519 0 0 0-.307-.002h-.002c-.001 0-.005 0-.014.003-.02.003-.06.011-.138.03ZM12.79 4.7v.002c-.704 1.406-.982 3.614-.537 6.14v.001c.55 3.134 2.131 5.63 4.215 7.019l.002.001a8.74 8.74 0 0 0 1.69.831 4.856 4.856 0 0 0 .233.072l.005.001c.007.002.046.008.298.02.456.017.702-.02 1.05-.131a3.66 3.66 0 0 0 1.554-.954c.97-.965 1.693-2.549 1.867-4.649.064-.81-.01-2.129-.201-3.151l-.001-.005c-.703-3.801-2.708-6.458-5.027-7.47-.97-.423-1.622-.475-2.07-.396-1.072.194-2.277 1.067-3.078 2.67ZM42.9 20.128l-.001.001c-.634 1.237-.967 2.28-1.222 3.918-.082.543-.094.69-.094 1.35 0 .782.038 1.069.178 1.623v.002c.397 1.575 1.279 2.623 2.088 3.02.502.246.868.306 1.291.267h.006c1.443-.128 2.79-.776 4.09-2.137 1.439-1.51 2.47-3.654 2.805-5.934l.001-.005c.083-.554.142-1.714.12-2.09-.13-2.213-1.287-3.816-2.438-4.32-.463-.2-.935-.25-1.3-.191-2.136.358-4.19 1.887-5.525 4.496ZM45.321 32.3ZM2.358 19.5v-.003c.293-.85 1.141-1.596 2.243-1.776L2.358 19.5Zm0 0c-.132.382-.269 1.027-.327 1.643v.001m.327-1.644-.327 1.644m0 0c-.199 2.106.568 4.59 2.076 6.449m-2.076-6.449 2.076 6.449m0 0c.309.378.982 1.036 1.347 1.315l.006.004.006.005c.92.713 2.019 1.207 2.978 1.39.007 0 .036.004.094.007a4.682 4.682 0 0 0 .653-.013c.807-.177 1.548-.739 1.996-1.658l.001-.002c.26-.532.448-1.335.448-2.457 0-.697-.03-1.015-.15-1.636l-.001-.005c-.458-2.39-1.962-4.644-3.945-5.946l-.006-.004c-.568-.376-1.323-.73-1.576-.803a3.701 3.701 0 0 0-1.357-.07l-.494 9.873Zm8.721 17.175a6.33 6.33 0 0 1-.094-2.924c.057-.263.146-.714.2-1.028.727-4.232 2.526-8.372 5.223-12.814l-5.33 16.766Zm0 0c.44 1.567 1.323 2.525 2.122 2.87.302.13 1.118.23 2.4-.115m-4.522-2.755 4.522 2.755m0 0 .008-.002m-.008.002.008-.002m0 0c.772-.204 1.35-.427 3.397-1.4 1.425-.68 2.44-1.138 3.366-1.446.974-.323 1.8-.467 2.83-.59h.001m-9.594 3.436 9.594-3.436m0 0c.941-.112 1.25-.13 2.03-.057m-2.03.057 2.03-.057m8.966 3.625-.006-.003a24.04 24.04 0 0 1-.839-.41c-.562-.284-1.345-.69-2.362-1.223l3.207 1.636Zm0 0 .011.004m-.011-.004.011.004m0 0c1.886.686 3.533-.138 4.117-1.797.268-.771.36-2.37.038-4.061-.295-1.546-1.223-3.749-2.212-5.744m-1.943 11.602 1.943-11.603m0 0c-2.776-5.61-4.685-8.562-6.772-10.728-1.995-2.062-3.429-2.815-5.098-3.054h-.005m11.875 13.782L28.027 22.272m0 0c-.44-.064-1.395-.065-1.854 0h1.854Zm-5.256 1.198c1.15-.65 2.283-1.036 3.402-1.197L22.77 23.47Zm0 0c-1.754.996-3.499 2.696-4.614 4.531l4.614-4.531Zm6.21 20.558c1.9.174 3.371.737 5.76 1.989l-5.76-1.989Z"/>
</svg>
