<svg xmlns="http://www.w3.org/2000/svg" width="129" height="126" fill="none" viewBox="0 0 129 126">
  <path fill="#E3D8EC" fill-opacity=".3" fill-rule="evenodd" d="M19.052 74.816a2.717 2.717 0 0 1 .19-3.838l.563-.51a2.717 2.717 0 1 1 3.648 4.027l-.563.51a2.717 2.717 0 0 1-3.838-.19ZM89.839 25.36a2.717 2.717 0 0 1 .19-3.838l.562-.51a2.717 2.717 0 1 1 3.648 4.027l-.563.51a2.717 2.717 0 0 1-3.837-.19Zm-55.478 79.578a2.717 2.717 0 0 1 .19-3.838l3.316-3.004a2.716 2.716 0 1 1 3.648 4.027l-3.316 3.004a2.716 2.716 0 0 1-3.838-.189Zm72.315-50.842a2.717 2.717 0 0 1 .19-3.838l3.316-3.004a2.717 2.717 0 0 1 3.648 4.027l-3.316 3.004a2.717 2.717 0 0 1-3.838-.19Zm-56.911 51.551a2.716 2.716 0 0 1 .19-3.837l51.355-46.518a2.716 2.716 0 1 1 3.648 4.027l-51.355 46.518a2.717 2.717 0 0 1-3.838-.19Zm20.605-4.002a2.717 2.717 0 0 1 .19-3.837l33.303-30.166a2.716 2.716 0 1 1 3.647 4.027l-33.302 30.166a2.717 2.717 0 0 1-3.837-.19ZM43.234 96.9a2.717 2.717 0 0 1 .19-3.838l60.534-54.832a2.716 2.716 0 1 1 3.648 4.027L47.072 97.09a2.717 2.717 0 0 1-3.838-.19Zm-19.228 2.755a2.717 2.717 0 0 1 .19-3.838l77.056-69.8a2.717 2.717 0 0 1 3.648 4.027l-77.057 69.8a2.717 2.717 0 0 1-3.837-.19Zm1.166-30.383a2.717 2.717 0 0 1 .19-3.837l48.294-43.746a2.717 2.717 0 0 1 3.648 4.027L29.01 69.462a2.717 2.717 0 0 1-3.837-.19Zm7.543-21.496a2.717 2.717 0 0 1 .19-3.838L57.64 21.533a2.717 2.717 0 1 1 3.648 4.027L36.553 47.965a2.717 2.717 0 0 1-3.837-.19ZM23.136 85.78a2.717 2.717 0 0 1 .19-3.837L84.47 26.555a2.717 2.717 0 0 1 3.648 4.027L26.973 85.97a2.717 2.717 0 0 1-3.837-.19Z" clip-rule="evenodd"/>
</svg>
